<?xml version="1.0" encoding="UTF-8" standalone="no"?>
<!-- Generator: Adobe Illustrator 19.0.0, SVG Export Plug-In . SVG Version: 6.00 Build 0)  -->

<svg
   version="1.1"
   id="Layer_1"
   x="0px"
   y="0px"
   viewBox="0 0 329.249 329.249"
   style="enable-background:new 0 0 329.249 329.249;"
   xml:space="preserve"
   sodipodi:docname="avatar-svgrepo-com.svg"
   inkscape:version="1.2.1 (9c6d41e, 2022-07-14)"
   xmlns:inkscape="http://www.inkscape.org/namespaces/inkscape"
   xmlns:sodipodi="http://sodipodi.sourceforge.net/DTD/sodipodi-0.dtd"
   xmlns="http://www.w3.org/2000/svg"
   xmlns:svg="http://www.w3.org/2000/svg"><defs
   id="defs24517">
	
	
	
	
	
	
	
	
	

		
		
	
		
		
	
		
		
	</defs><sodipodi:namedview
   id="namedview24515"
   pagecolor="#ffffff"
   bordercolor="#000000"
   borderopacity="0.25"
   inkscape:showpageshadow="2"
   inkscape:pageopacity="0.0"
   inkscape:pagecheckerboard="0"
   inkscape:deskcolor="#d1d1d1"
   showgrid="false"
   inkscape:zoom="1.567203"
   inkscape:cx="164.6245"
   inkscape:cy="164.6245"
   inkscape:window-width="1366"
   inkscape:window-height="682"
   inkscape:window-x="0"
   inkscape:window-y="25"
   inkscape:window-maximized="1"
   inkscape:current-layer="Layer_1" />
<g
   id="XMLID_62_">
		<g
   id="XMLID_1121_">
			<path
   id="XMLID_1122_"
   style="fill:#f3d8b6"
   d="M 247.814,233.696 C 229.147,227.015 196.356,221.96 196.356,152.32 h -29.23 -5.002 -29.23 c 0,69.64 -32.791,74.695 -51.458,81.376 0,47.368 68.832,48.824 80.688,53.239 v 1.537 c 0,0 0.922,-0.188 2.501,-0.68 1.579,0.492 2.501,0.68 2.501,0.68 v -1.537 c 11.855,-4.414 80.688,-5.871 80.688,-53.239 z" />
		</g>
		<path
   id="XMLID_1123_"
   style="fill:#eec8a2"
   d="m 196.356,152.321 h -29.23 -2.501 v 135.472 c 1.579,0.492 2.501,0.68 2.501,0.68 v -1.537 c 11.856,-4.414 80.688,-5.871 80.688,-53.238 -18.667,-6.683 -51.458,-11.737 -51.458,-81.377 z" />
	</g><g
   id="XMLID_58_">
		<g
   id="XMLID_1124_">
			<path
   id="XMLID_1125_"
   style="fill:#f3dbc4"
   d="m 164.627,174.483 c -27.454,0 -48.409,-23.119 -57.799,-40.456 -9.39,-17.337 -15.888,-79.445 4.34,-106.897 19.808,-26.883 53.459,-13.838 53.459,-13.838 0,0 33.649,-13.045 53.458,13.838 20.226,27.452 13.726,89.56 4.335,106.897 -9.392,17.337 -30.345,40.456 -57.793,40.456 z" />
		</g>
		<path
   id="XMLID_1126_"
   style="fill:#edceae"
   d="M 218.085,27.13 C 198.275,0.247 164.627,13.292 164.627,13.292 h -0.002 v 161.192 c 0.001,0 0.001,0 0.002,0 27.449,0 48.401,-23.119 57.794,-40.456 9.39,-17.338 15.89,-79.445 -4.336,-106.898 z" />
	</g><g
   id="XMLID_55_">
		
			<ellipse
   id="XMLID_57_"
   transform="matrix(0.3543,-0.9351,0.9351,0.3543,46.5967,281.0264)"
   style="fill:#edceae"
   cx="226.798"
   cy="106.771"
   rx="17.187"
   ry="10.048" />
		
			<ellipse
   id="XMLID_56_"
   transform="matrix(0.3543,0.9351,-0.9351,0.3543,166.0001,-26.8553)"
   style="fill:#f3dbc4"
   cx="102.447"
   cy="106.778"
   rx="17.187"
   ry="10.048" />
	</g><g
   id="XMLID_1127_"
   style="fill:#668000">
			<path
   id="XMLID_1128_"
   style="fill:#668000"
   d="m 284.607,288.568 v 40.681 H 44.643 v -40.681 c 0,-30.431 17.377,-56.963 40.605,-70.913 6.043,-3.641 19.69,-7.43 26.844,-9.196 5.953,-1.488 53.438,22.729 53.438,22.729 0,0 48.674,-23.218 54.627,-21.729 7.154,1.766 17.802,4.554 23.844,8.196 23.229,13.95 40.606,40.482 40.606,70.913 z" />
		</g><path
   id="XMLID_1129_"
   style="fill:#445500"
   d="m 244.002,217.655 c -6.043,-3.641 -16.69,-6.429 -23.844,-8.196 -5.953,-1.488 -54.627,21.729 -54.627,21.729 0,0 -0.321,-0.164 -0.906,-0.459 v 98.52 h 119.982 v -40.681 c 0,-30.431 -17.378,-56.963 -40.605,-70.913 z" /><polygon
   id="XMLID_1130_"
   style="fill:#786721"
   points="148.292,329.249 180.958,329.249 171.978,246.798 186.292,235.806 164.625,228.973 142.958,235.806 157.272,246.798 " /><polygon
   id="XMLID_1131_"
   style="fill:#504416"
   points="171.978,246.799 186.292,235.806 164.625,228.973 164.625,329.249 180.958,329.249 " /><g
   id="XMLID_45_">
		<path
   id="XMLID_1132_"
   style="fill:#dedde0"
   d="m 212.792,204.681 -48.167,23.441 -48.167,-23.441 c -11.5,5.5 10.396,38.436 14.833,36.833 10.963,-3.96 33.334,-10.329 33.334,-10.329 0,0 22.371,6.369 33.334,10.329 4.437,1.604 26.333,-31.333 14.833,-36.833 z" />
		<path
   id="XMLID_1133_"
   style="fill:#dedde0"
   d="m 212.792,204.681 -48.167,23.441 v 3.063 c 0,0 22.371,6.369 33.334,10.329 4.437,1.604 26.333,-31.333 14.833,-36.833 z" />
	</g><g
   id="XMLID_1134_"
   style="fill:#668000">
			<path
   id="XMLID_1135_"
   style="fill:#668000"
   d="M 206.619,97.84 H 178.93 c -1.185,0 -2.356,0.243 -3.431,0.713 l -10.874,3.873 -10.874,-3.873 c -1.075,-0.47 -2.246,-0.713 -3.431,-0.713 h -27.688 c -5.509,0 -7.411,9.474 -7.411,9.474 0,12.532 9.191,22.692 23.756,22.692 8.882,0 17.409,-9.44 22.649,-17.081 h 6 c 5.24,7.641 13.768,17.081 22.649,17.081 14.565,0 23.756,-10.16 23.756,-22.692 -0.001,0 -1.903,-9.474 -7.412,-9.474 z" />
		</g><path
   id="XMLID_1136_"
   style="fill:#445500"
   d="M 206.619,97.84 H 178.93 c -1.185,0 -2.356,0.243 -3.431,0.713 l -10.874,3.873 v 10.5 h 3 c 5.24,7.641 13.768,17.081 22.649,17.081 14.565,0 23.756,-10.16 23.756,-22.692 0,-0.001 -1.902,-9.475 -7.411,-9.475 z" /><g
   id="XMLID_34_"
   style="fill:#28170b">
		<path
   id="XMLID_1139_"
   style="fill:#28170b"
   d="m 221.773,22.976 c -2.16,0.019 -25.469,-13.121 -41.382,-16.355 -18.766,-3.814 -18.777,-0.529 -26.02,1.516 -29.41,-9.014 -52.972,-15.012 -51.927,7.003 1.759,37.07 -9.345,65.989 -4.863,78.938 4.482,12.949 8.466,23.407 8.466,23.407 0,0 0.996,3.565 2.988,-16.854 1.992,-20.419 -4.579,-42.372 11.137,-40.379 15.716,1.992 10.785,14.805 44.436,14.805 33.391,0 28.719,-12.813 44.436,-14.805 15.716,-1.992 9.145,19.96 11.137,40.379 1.992,20.419 2.988,16.854 2.988,16.854 0,0 3.984,-10.458 8.466,-23.407 4.484,-12.949 9.49,-71.272 -9.862,-71.102 z" />
		<path
   id="XMLID_1142_"
   style="fill:#28170b"
   d="M 221.773,22.976 C 219.613,22.995 196.304,9.855 180.391,6.621 172.405,4.997 167.821,4.663 164.625,4.968 v 70.088 c 33.372,-0.004 28.706,-12.813 44.419,-14.804 15.716,-1.992 9.145,19.96 11.137,40.379 1.992,20.419 2.988,16.854 2.988,16.854 0,0 3.984,-10.459 8.466,-23.407 4.484,-12.949 9.49,-71.271 -9.862,-71.102 z" />
	</g><g
   id="XMLID_8_">
		
			<ellipse
   id="XMLID_33_"
   transform="matrix(0.3543,0.9351,-0.9351,0.3543,166.0001,-26.8553)"
   style="fill:#f3dbc4"
   cx="102.447"
   cy="106.778"
   rx="17.187"
   ry="10.048" />
		
			<ellipse
   id="XMLID_32_"
   transform="matrix(0.3543,-0.9351,0.9351,0.3543,46.5967,281.0264)"
   style="fill:#edceae"
   cx="226.798"
   cy="106.771"
   rx="17.187"
   ry="10.048" />
	</g>
<g
   id="g24484">
</g>
<g
   id="g24486">
</g>
<g
   id="g24488">
</g>
<g
   id="g24490">
</g>
<g
   id="g24492">
</g>
<g
   id="g24494">
</g>
<g
   id="g24496">
</g>
<g
   id="g24498">
</g>
<g
   id="g24500">
</g>
<g
   id="g24502">
</g>
<g
   id="g24504">
</g>
<g
   id="g24506">
</g>
<g
   id="g24508">
</g>
<g
   id="g24510">
</g>
<g
   id="g24512">
</g>
</svg>
