<?xml version="1.0" encoding="UTF-8" standalone="no"?>
<svg
   xmlns:dc="http://purl.org/dc/elements/1.1/"
   xmlns:cc="http://creativecommons.org/ns#"
   xmlns:rdf="http://www.w3.org/1999/02/22-rdf-syntax-ns#"
   xmlns:svg="http://www.w3.org/2000/svg"
   xmlns="http://www.w3.org/2000/svg"
   xmlns:sodipodi="http://sodipodi.sourceforge.net/DTD/sodipodi-0.dtd"
   xmlns:inkscape="http://www.inkscape.org/namespaces/inkscape"
   width="1920.183"
   height="1075.636"
   viewBox="0 0 1920.183 1075.636"
   version="1.1"
   id="svg345"
   sodipodi:docname="banner-bg.svg"
   inkscape:version="1.0.2 (e86c870879, 2021-01-15)">
  <metadata
     id="metadata349">
    <rdf:RDF>
      <cc:Work
         rdf:about="">
        <dc:format>image/svg+xml</dc:format>
        <dc:type
           rdf:resource="http://purl.org/dc/dcmitype/StillImage" />
      </cc:Work>
    </rdf:RDF>
  </metadata>
  <sodipodi:namedview
     pagecolor="#ffffff"
     bordercolor="#666666"
     borderopacity="1"
     objecttolerance="10"
     gridtolerance="10"
     guidetolerance="10"
     inkscape:pageopacity="0"
     inkscape:pageshadow="2"
     inkscape:window-width="1280"
     inkscape:window-height="717"
     id="namedview347"
     showgrid="false"
     inkscape:zoom="0.47041937"
     inkscape:cx="606.15198"
     inkscape:cy="537.81799"
     inkscape:window-x="0"
     inkscape:window-y="28"
     inkscape:window-maximized="1"
     inkscape:current-layer="svg345" />
  <defs
     id="defs338">
    <linearGradient
       id="linear-gradient"
       x1="0.5"
       x2="0.5"
       y2="1"
       gradientUnits="objectBoundingBox">
      <stop
         offset="0"
         stop-color="#361cc1"
         id="stop331" />
      <stop
         offset="1"
         stop-color="#2e82ef"
         id="stop333" />
    </linearGradient>
    <clipPath
       id="clip-path">
      <path
         id="Path_199"
         data-name="Path 199"
         d="M-533.031,278.516s95.269,204.193,401.21,161.147,419.656-32.1,544.188,96.892,343.977,107.54,572.909,67.066,360.19,68.158,401.79,142.968c.041-2.4-.074-1075.621-.074-1075.621l-1920,.011Z"
         transform="translate(533 329)"
         fill="url(#linear-gradient)" />
    </clipPath>
  </defs>
  <g
     id="Group_112"
     data-name="Group 112"
     transform="translate(0.089 0.042)"
     style="fill:#008000;fill-opacity:1">
    <path
       id="Path_195"
       data-name="Path 195"
       d="M-533.089,278.364s100.43,239.944,401.206,191.477,442.068,9.577,537.63,114.941,352.091,94.329,580.987,52.374S1349.9,678.95,1387.094,746.594c.016.016-.373-1075.609-.373-1075.609l-1919.766-.027Z"
       transform="translate(533 329)"
       opacity="0.11"
       fill="url(#linear-gradient)"
       style="fill:#008000;fill-opacity:1" />
    <path
       id="Path_194"
       data-name="Path 194"
       d="M-533.031,278.516s95.269,204.193,401.21,161.147,419.656-32.1,544.188,96.892,343.977,107.54,572.909,67.066,360.19,68.158,401.79,142.968c.041-2.4-.074-1075.621-.074-1075.621l-1920,.011Z"
       transform="translate(533 329)"
       fill="url(#linear-gradient)"
       style="fill:#008000;fill-opacity:1" />
    <g
       id="Mask_Group_6"
       data-name="Mask Group 6"
       clip-path="url(#clip-path)"
       style="fill:#008000;fill-opacity:1">
      <path
         id="Path_4"
         data-name="Path 4"
         d="M-496.368,321.285S-322.126-70.761,321.065,66.253s869.415,77.467,1056.161-463.982"
         transform="translate(522 366.416)"
         fill="none"
         stroke="#361cc1"
         stroke-width="128"
         opacity="0.14"
         style="fill:#008000;fill-opacity:1" />
    </g>
  </g>
</svg>
