<?xml version="1.0" encoding="UTF-8" standalone="no"?>
<svg
   width="851.034"
   height="557.34684"
   viewBox="0 0 851.034 557.34684"
   version="1.1"
   id="svg958"
   sodipodi:docname="undraw_educator_re_ju47.svg"
   inkscape:version="1.2.1 (9c6d41e, 2022-07-14)"
   xmlns:inkscape="http://www.inkscape.org/namespaces/inkscape"
   xmlns:sodipodi="http://sodipodi.sourceforge.net/DTD/sodipodi-0.dtd"
   xmlns="http://www.w3.org/2000/svg"
   xmlns:svg="http://www.w3.org/2000/svg">
  <defs
     id="defs962" />
  <sodipodi:namedview
     id="namedview960"
     pagecolor="#ffffff"
     bordercolor="#000000"
     borderopacity="0.25"
     inkscape:showpageshadow="2"
     inkscape:pageopacity="0.0"
     inkscape:pagecheckerboard="0"
     inkscape:deskcolor="#d1d1d1"
     showgrid="false"
     inkscape:zoom="0.65464996"
     inkscape:cx="228.36632"
     inkscape:cy="278.01117"
     inkscape:window-width="1366"
     inkscape:window-height="682"
     inkscape:window-x="0"
     inkscape:window-y="25"
     inkscape:window-maximized="1"
     inkscape:current-layer="svg958" />
  <path
     d="M785.20402,269.12891H95.10929c-9.25,0-16.77539-7.52539-16.77539-16.77637V16.77539c0-9.25,7.52539-16.77539,16.77539-16.77539H785.20402c9.25,0,16.77539,7.52539,16.77539,16.77539V252.35254c0,9.25098-7.52539,16.77637-16.77539,16.77637ZM95.10929,2c-8.14697,0-14.77539,6.62842-14.77539,14.77539V252.35254c0,8.14746,6.62842,14.77637,14.77539,14.77637H785.20402c8.14697,0,14.77539-6.62891,14.77539-14.77637V16.77539c0-8.14697-6.62842-14.77539-14.77539-14.77539H95.10929Z"
     fill="#3f3d56"
     id="path810" />
  <rect
     id="uuid-dac6dc9f-03bc-4283-a90c-97bcdcbf45dc"
     y="550.55711"
     width="851.034"
     height="1.683"
     fill="#e6e6e6" />
  <rect
     id="uuid-2f9646f7-bb94-4523-8d2e-fd8f0877664c"
     y="464.55711"
     width="851.034"
     height="1.683"
     fill="#e6e6e6" />
  <path
     id="uuid-bb35f39c-94aa-41c4-b5d9-34ca9a9e88f1-1387"
     d="m 387.84012,277.7924 c 0.6111,7.67992 5.06908,13.58982 9.95656,13.20011 4.88749,-0.38971 8.35284,-6.93077 7.7405,-14.61335 -0.20251,-3.07223 -1.13781,-6.05129 -2.72768,-8.68793 l -3.00018,-32.50744 -15.22478,1.73305 4.57404,31.86258 c -1.15299,2.85593 -1.6051,5.94649 -1.31846,9.01298 z"
     fill="#ffb6b6" />
  <path
     d="m 369.65265,126.13324 c 0,0 14.23183,-7.53394 21.44832,3.72455 7.21649,11.25849 12.19715,133.02108 12.19715,133.02108 l -20.0018,2.13549 -3.79168,-85.80267 -9.85198,-53.07844 z"
     fill="#e6e6e6"
     id="path815" />
  <g
     id="g821">
    <polygon
       points="357.21344,413.50859 340.11158,413.50978 340.11391,458.20431 351.70127,458.20318 "
       fill="#ffb6b6"
       id="polygon817" />
    <path
       d="m 379.81365,457.94146 v 0 c 0.36079,0.60764 0.55116,2.56882 0.55116,3.27545 v 0 c 0,2.172 -1.76073,3.9328 -3.9328,3.9328 h -35.88469 c -1.48173,0 -2.68297,-1.20117 -2.68297,-2.68297 v -1.49399 c 0,0 -1.77518,-4.49023 1.8796,-10.02469 0,0 4.54241,4.33356 11.32993,-2.45396 l 2.00158,-3.62601 14.48869,10.59629 8.03086,0.98852 c 1.75699,0.21625 3.31472,-0.0336 4.21849,1.48856 h 1.4e-4 z"
       fill="#2f2e41"
       id="path819" />
  </g>
  <g
     id="g827">
    <polygon
       points="412.67359,408.74865 396.10412,412.98257 407.16841,456.28595 418.39497,453.41695 "
       fill="#ffb6b6"
       id="polygon823" />
    <path
       d="m 445.56792,446.20546 v 0 c 0.49996,0.49944 1.1698,2.35248 1.3447,3.03713 v 0 c 0.53758,2.10442 -0.73257,4.24622 -2.83706,4.78381 l -34.76822,8.88157 c -1.43562,0.36673 -2.89679,-0.49976 -3.26354,-1.93545 l -0.36977,-1.44751 c 0,0 -2.83129,-3.91116 -0.66002,-10.178 0,0 5.47365,3.07447 10.37006,-5.1818 l 1.04186,-4.0086 16.66052,6.68062 8.02566,-1.0299 c 1.75585,-0.22534 3.20328,-0.85292 4.45567,0.39816 z"
       fill="#2f2e41"
       id="path825" />
  </g>
  <polygon
     points="336.50788,96.59024 354.44935,94.59675 358.32324,117.42831 330.5274,116.5252 329.97801,112.53821 "
     fill="#ffb6b6"
     id="polygon829" />
  <polygon
     points="336.50788,96.59024 354.44935,94.59675 358.32324,117.42831 330.5274,116.5252 329.97801,112.53821 "
     opacity="0.1"
     id="polygon831" />
  <polygon
     points="307.60219,263.04715 337.50463,436.4813 357.38465,436.4813 353.4526,282.98211 399.30301,436.4813 418.97897,436.4813 403.15657,332.81951 391.32902,237.13171 384.15521,232.6999 349.46561,213.20976 309.59569,229.15772 301.6217,251.08618 "
     fill="#2f2e41"
     id="polygon833"
     style="fill:#2b1100" />
  <polygon
     points="332.52089,208.22602 368.40382,208.22602 360.42983,244.10894 348.46886,246.10244 "
     fill="#e6e6e6"
     id="polygon835" />
  <polygon
     points="352.45585,226.16748 348.46886,246.10244 306.60544,232.62639 312.58593,208.22602 306.60544,128.48618 327.71662,114.41198 330.5274,112.53821 356.44284,114.53171 358.71546,115.76767 374.38431,124.49919 378.3713,190.28455 384.35179,234.14146 360.42983,244.10894 "
     fill="#2f2e41"
     id="polygon837"
     style="fill:#2b1100" />
  <polygon
     points="327.71662,114.41198 330.5274,112.53821 356.44284,114.53171 358.71546,115.76767 347.47211,163.37236 "
     fill="#e6e6e6"
     id="polygon839" />
  <polygon
     points="339.49813,121.69353 337.50463,163.49619 345.47862,174.33659 353.4526,158.31478 347.47211,121.69353 349.46561,112.53821 339.49813,112.53821 335.51114,119.4047 "
     fill="#2f2e41"
     id="polygon841"
     style="fill:#803300" />
  <circle
     cx="345.47861"
     cy="89.613007"
     r="18.93821"
     fill="#ffb6b6"
     id="circle843" />
  <path
     d="m 333.37575,91.27425 4.09196,1.78584 1.78584,-10.71504 c 0,0 7.14336,-3.57168 12.50088,-1.78584 5.35752,1.78584 14.28672,0 14.28672,0 0,0 0,-17.8584 -12.50088,-17.8584 -12.50088,0 -25.00176,1.78584 -25.00176,7.14336 0,5.35752 -5.35752,10.71504 -5.35752,10.71504 0,0 -7.14336,10.71504 0,17.8584 7.14336,7.14336 10.71504,7.14336 10.71504,7.14336 z"
     fill="#2f2e41"
     id="path845"
     style="fill:#241c1c" />
  <path
     id="uuid-97233535-ec91-4408-928f-bf1e5273ca3e-1388"
     d="m 296.62879,277.23211 c -0.20767,7.7014 3.59771,14.05116 8.49895,14.18252 4.90124,0.13136 9.04142,-6.00486 9.24813,-13.70902 0.12478,-3.07637 -0.48897,-6.13789 -1.78994,-8.92841 l 0.46781,-32.64224 -15.32272,0.10697 1.16561,32.1681 c -1.44966,2.71738 -2.22731,5.74249 -2.26784,8.82207 z"
     fill="#ffb6b6" />
  <path
     d="m 315.58593,124.46179 c 0,0 -12.95772,-3.98699 -18.93821,7.97398 C 290.66723,144.39675 298.64122,266 298.64122,266 h 20.11547 l -5.33868,-85.72033 2.16793,-55.81789 z"
     fill="#e6e6e6"
     id="path848" />
  <path
     d="m 812.65719,351.00821 -48.32166,-14.79238 c -1.06882,-0.32716 -2.19038,-0.4466 -3.30415,-0.3518 l -244.90187,20.84269 c -3.49184,0.29715 -4.36942,5.00693 -1.21895,6.54176 l 7.84468,3.82176 h -0.20917 v 182.95168 h 7.39199 V 370.56958 l 24.58572,11.97763 c 1.88116,0.91644 3.98046,1.29052 6.06233,1.08022 l 2.61589,-0.26422 v 166.65871 h 7.39199 v -167.4054 l 189.41967,-19.13326 v 186.53866 h 7.39199 V 362.73657 l 31.41595,-3.17331 v 190.45866 h 7.39199 V 358.81657 l 5.7314,-0.57891 c 4.0236,-0.40645 4.57916,-6.04575 0.71223,-7.22945 z"
     fill="#3f3d56"
     id="path852"
     style="fill:#2b1100" />
  <path
     d="m 587.22595,355.98226 c 4.61999,0 72.99587,-8.31599 72.99587,-8.31599 l 10.16398,13.85998 -71.14788,13.85998 -12.01198,-19.40397 z"
     fill="#ffffff"
     id="path854" />
  <g
     id="g860">
    <polygon
       points="644.81757,497.06436 662.35045,497.09569 662.26939,542.91667 650.39,542.89512 "
       fill="#a0616a"
       id="polygon856" />
    <path
       d="m 621.56955,542.57731 v 0 c -0.37095,0.62232 -0.56957,2.63259 -0.57082,3.35703 v 0 c -0.004,2.22674 1.79818,4.03501 4.02499,4.03884 l 36.78911,0.0632 c 1.51907,0.003 2.7527,-1.22673 2.75531,-2.74587 l 0.003,-1.53165 c 0,0 1.82782,-4.60028 -1.90933,-10.28065 0,0 -4.66452,4.43479 -11.61116,-2.53575 l -2.04565,-3.72093 -14.87251,10.83785 -8.23501,0.9993 c -1.80165,0.21861 -3.39821,-0.0402 -4.32743,1.51866 h -1.4e-4 z"
       fill="#2f2e41"
       id="path858" />
  </g>
  <g
     id="g866">
    <polygon
       points="684.92538,495.88695 698.75852,485.45309 726.02735,521.60456 716.65452,528.67376 "
       fill="#a0616a"
       id="polygon862" />
    <path
       d="m 693.75683,545.61506 v 0 c 0.0789,0.71161 1.12159,2.41402 1.55275,2.98556 v 0 c 1.32526,1.75677 3.82374,2.10662 5.58057,0.78132 l 29.02444,-21.89533 c 1.19846,-0.90409 1.43715,-2.60858 0.53302,-3.80709 l -0.91157,-1.20838 c 0,0 -1.30394,-4.71495 -7.63691,-6.96136 0,0 -1.02986,6.27668 -10.66123,4.92822 l -3.83137,-1.71153 -5.2534,17.41094 -5.89241,5.69963 c -1.28915,1.24695 -2.70151,1.99536 -2.50376,3.77794 l -1.1e-4,9e-5 z"
       fill="#2f2e41"
       id="path864" />
  </g>
  <path
     d="m 701.20012,284.7398 c 0,10.95483 -8.88064,19.83547 -19.83547,19.83547 -10.95483,0 -19.83547,-8.88064 -19.83547,-19.83547 0,-10.95483 8.88064,-19.83547 19.83547,-19.83547 10.95483,0 19.83547,8.88064 19.83547,19.83547 z"
     fill="#a0616a"
     id="path868" />
  <path
     d="m 699.33129,399.1067 c 0,0 -73.0319,-4.13388 -77.16578,4.13388 -4.13388,8.26776 22.34833,121.83338 22.34833,121.83338 l 23.62655,-4.95175 -11.52587,-79.6767 c 0,0 60.94342,16.14005 69.21118,-3.1514 8.26776,-19.29144 5.88766,-26.47475 5.88766,-26.47475 z"
     fill="#2f2e41"
     id="path870"
     style="fill:#2b1100" />
  <path
     d="m 718.04278,385.22869 c 0,0 -71.52378,15.33281 -73.3233,24.3996 -1.79952,9.06679 53.78128,111.58133 53.78128,111.58133 l 21.47498,-11.02537 -32.19248,-73.78934 c 0,0 63.04198,-0.55653 65.91197,-21.34785 2.86999,-20.79132 -1.32556,-27.08911 -1.32556,-27.08911 l -34.3269,-2.72925 z"
     fill="#2f2e41"
     id="path872"
     style="fill:#28170b" />
  <path
     d="m 726.20152,307.47234 h -34.36221 l -23.51213,38.58289 c 0,0 -5.51184,24.93349 0,27.62431 5.51184,2.69082 5.51184,31.62799 5.51184,31.62799 l 57.87433,5.51184 c 0,0 8.26776,-86.8115 5.51184,-95.07926 -2.75592,-8.26776 -11.02368,-8.26776 -11.02368,-8.26776 z"
     fill="#498736"
     id="path874" />
  <path
     d="m 671.77208,332.96463 -3.44492,40.71481 -38.74748,-16.44473 -9.24771,-4.6509 c -1.81128,-2.36188 -4.16183,-4.25556 -6.85504,-5.52279 -6.69735,-3.264 -13.80747,-2.4555 -15.8841,1.80514 -2.07668,4.26063 1.66736,10.35956 8.36279,13.62153 2.6583,1.34088 5.59915,2.02531 8.57642,1.99632 l 27.05797,15.36813 0.0319,-0.0601 0.11996,0.21419 42.43185,17.72245 9.76312,-53.44911 -22.16474,-11.31492 z"
     fill="#a0616a"
     id="path876" />
  <path
     d="m 667.63821,287.49192 c 0,0 -20.6694,2.75592 -12.40164,-15.15756 0,0 -1.2606,-9.71082 4.88154,-10.36725 6.14214,-0.65643 14.4099,-11.68011 14.4099,-11.68011 0,0 18.95509,-9.64572 28.76899,0 9.8139,9.64572 38.75106,66.14209 38.75106,66.14209 l -19.29144,20.6694 c 0,0 -11.59783,-30.48873 -25.09036,-26.95703 -13.49253,3.5317 -25.89417,14.06171 -25.89417,14.06171 0,0 -13.6928,-6.8525 -7.53538,-12.82513 6.15742,-5.97263 3.4015,-23.88612 3.4015,-23.88612 z"
     fill="#2f2e41"
     id="path878"
     style="fill:#28170b" />
  <path
     d="m 695.19741,317.80704 c 0,0 -9.64572,-12.40164 -16.53552,-2.75592 -6.8898,9.64572 -12.40164,22.04736 -12.40164,22.04736 l 27.55921,9.64572 1.37796,-28.93717 z"
     fill="#498736"
     id="path880" />
  <path
     d="m 799.83575,547.27902 -32.01899,-101.77021 0.005,-3.4e-4 h 0.0739 l -0.12937,-0.16637 -0.003,-0.004 -2.28061,-7.24885 0.001,-9e-4 c 3.47424,-2.99375 5.83968,-7.27186 6.31092,-12.19685 l -14.63616,-80.49862 c 1.00718,-10.5706 -7.0963,-19.81058 -17.71303,-20.18945 l -33.02369,-0.0831 c -9.3878,-0.33263 -17.51903,6.44949 -18.88653,15.74497 l -0.72994,4.93412 -10.11779,68.82863 c -0.36962,2.47625 -0.22175,4.91573 0.36037,7.19798 l -7.28111,0.95175 -2.20837,0.29563 -8.7318,1.1365 -0.0277,0.009 -1.09031,0.13862 h -1.18275 v 29.56795 h 0.0739 v 94.50658 c 0,0.60976 0.49894,1.10875 1.10881,1.10875 0.61906,0 1.118,-0.499 1.118,-1.10875 v -94.50658 h 12.95448 l 12.92673,94.39559 c 0.0832,0.55449 0.55438,0.96099 1.10881,0.96099 0.0462,0 0.10163,0 0.14781,-0.009 0.60987,-0.0831 1.03487,-0.64675 0.95175,-1.25662 l -12.88054,-94.09072 h 62.15733 c 6.17174,0 11.89073,-1.95853 16.54743,-5.31209 l 24.64454,99.53455 c 0.12825,0.50373 0.58088,0.83839 1.07785,0.83839 0.0907,0 0.18312,-0.0108 0.27527,-0.0342 0.59555,-0.15159 0.95558,-0.75752 0.80421,-1.35306 l -24.8828,-100.49674 c 0.33093,-0.27589 0.66192,-0.57005 0.97453,-0.87347 l 9.89305,-0.58179 32.1857,102.30011 c 0.14939,0.47497 0.58821,0.77929 1.06127,0.77929 0.11059,0 0.22305,-0.0168 0.3342,-0.0517 0.58635,-0.18475 0.9121,-0.80974 0.72763,-1.39604 z M 763.36776,439.66885 c 0.0831,-0.0463 0.15706,-0.10174 0.231,-0.14798 l 5.6e-4,-4.5e-4 0.23777,0.75571 z"
     fill="#e6e6e6"
     id="path882" />
  <g
     id="g892">
    <polygon
       points="201.87509,366.35537 171.56525,401.18319 171.56525,374.77477 193.11428,361.07087 "
       fill="#ffb6b6"
       id="polygon886" />
    <path
       d="m 142.09734,321.73254 c 0,0 -14.31298,3.36776 -7.57746,22.73238 6.73552,19.36462 28.62597,59.77775 35.36149,57.25193 6.73552,-2.52582 7.57746,-27.78403 7.57746,-27.78403 0,0 -0.84194,0.84194 -4.2097,-2.52582 -3.36776,-3.36776 -3.36776,-1.82973 -3.36776,-5.54554 0,-3.71581 -2.75454,-6.47034 -2.75454,-6.47034 l -3.13904,-6.50681 c 0,0 0,-30.30985 -12.6291,-31.99373 -12.6291,-1.68388 -9.26134,0.84194 -9.26134,0.84194 z"
       fill="#e6e6e6"
       id="path888" />
    <ellipse
       cx="202.71703"
       cy="359.19888"
       rx="14.31298"
       ry="8.8403702"
       transform="rotate(-45,202.71704,359.19888)"
       fill="#ffb6b6"
       id="ellipse890" />
  </g>
  <g
     id="g906">
    <polygon
       points="186.74142,452.55742 163.92475,423.14927 86.34807,433.29001 101.05215,457.62779 "
       fill="#e6e6e6"
       id="polygon894" />
    <path
       d="m 111.95221,547.11985 c -0.49911,0 -0.93386,-0.36839 -1.00343,-0.87642 L 85.3434,359.23635 c -0.07601,-0.55507 0.31219,-1.06656 0.86701,-1.14232 0.55457,-0.0802 1.06607,0.31195 1.14232,0.86701 l 25.60538,187.00708 c 0.076,0.55507 -0.31219,1.06656 -0.86701,1.14232 -0.0468,0.006 -0.0931,0.009 -0.13889,0.009 z"
       fill="#e6e6e6"
       id="path896" />
    <path
       d="m 86.34807,547.35752 c -0.56002,0 -1.01407,-0.45406 -1.01407,-1.01407 V 359.13484 c 0,-0.56002 0.45406,-1.01407 1.01407,-1.01407 0.56002,0 1.01407,0.45406 1.01407,1.01407 v 187.20861 c 0,0.56002 -0.45406,1.01407 -1.01407,1.01407 z"
       fill="#e6e6e6"
       id="path898" />
    <path
       d="m 214.88174,546.61331 c -0.43103,0 -0.83087,-0.27729 -0.96703,-0.71005 L 153.32377,353.31877 c -0.1681,-0.53427 0.12874,-1.1037 0.66301,-1.27205 0.53402,-0.16736 1.1037,0.12924 1.27155,0.66301 l 60.59094,192.58449 c 0.1681,0.53427 -0.12874,1.1037 -0.66301,1.27205 -0.10126,0.0317 -0.20376,0.047 -0.30452,0.047 z"
       fill="#e6e6e6"
       id="path900" />
    <path
       d="m 196.37439,546.85049 c -0.45282,0 -0.86528,-0.30501 -0.98214,-0.76402 L 153.30817,376.11712 c -0.1379,-0.54269 0.19014,-1.09478 0.73283,-1.23293 0.54442,-0.13716 1.09478,0.19014 1.23293,0.73283 l 42.08408,169.96935 c 0.1379,0.54269 -0.19014,1.09478 -0.73283,1.23293 -0.0839,0.0213 -0.1681,0.0312 -0.2508,0.0312 z"
       fill="#e6e6e6"
       id="path902" />
    <polygon
       points="169.50216,434.81112 87.36214,434.81112 86.34807,362.11717 156.57271,361.03722 "
       fill="#e6e6e6"
       id="polygon904" />
  </g>
  <g
     id="g914"
     style="fill:#2b1100">
    <polygon
       points="197.11665,506.27891 205.68358,484.11776 194.26591,470.59655 176.56797,501.75497 "
       fill="#ffb6b6"
       id="polygon908"
       style="fill:#2b1100" />
    <path
       d="m 182.92462,495.87253 c 0,0 -0.68769,-5.08127 -4.73068,-3.46879 -4.04299,1.61248 -15.71126,7.60503 -15.71126,7.60503 0,0 30.43363,49.4508 36.20933,47.14726 5.7757,-2.30353 -1.13827,-16.28208 -1.13827,-16.28208 l 1.52597,-24.70853 -16.1551,-10.29289 z"
       fill="#2f2e41"
       id="path910"
       style="fill:#2b1100" />
    <path
       d="m 115.9972,410.13626 c 0,0 -6.31455,29.04694 13.05007,39.15022 19.36462,10.10328 85.45693,-14.73395 85.45693,-14.73395 l -30.30985,45.41505 21.0485,8.46912 c 0,0 47.99059,-63.14551 44.62283,-73.24879 -3.36776,-10.10328 -26.10015,-10.94522 -26.10015,-10.94522 l -51.35835,2.52582 -13.47104,-4.2097 -42.93895,7.57746 z"
       fill="#2f2e41"
       id="path912"
       style="fill:#2b1100" />
  </g>
  <g
     id="g922"
     style="fill:#2b1100">
    <polygon
       points="157.75463,518.69879 173.79831,501.17426 168.08352,484.4253 140.26086,507.00768 "
       fill="#ffb6b6"
       id="polygon916"
       style="fill:#2b1100" />
    <path
       d="m 148.32224,503.84158 c 0,0 1.20844,-4.98316 -3.14413,-4.9524 -4.35257,0.0308 -17.40151,1.36661 -17.40151,1.36661 0,0 10.35295,57.13496 16.57091,57.09102 6.21796,-0.0439 4.86453,-15.58006 4.86453,-15.58006 l 10.41237,-22.45936 -11.30217,-15.46582 z"
       fill="#2f2e41"
       id="path918"
       style="fill:#2b1100" />
    <path
       d="m 117.181,399.62925 c 0,0 -16.45134,24.75786 -2.09067,41.21496 14.36067,16.4571 84.95984,17.37244 84.95984,17.37244 l -44.7577,31.27238 16.52375,15.54771 c 0,0 67.67815,-41.35361 68.21767,-51.98973 0.53953,-10.63612 -20.32807,-19.69226 -20.32807,-19.69226 l -48.75657,-16.33576 -11.01569,-8.82298 -42.75257,-8.56676 z"
       fill="#2f2e41"
       id="path920"
       style="fill:#2b1100" />
  </g>
  <path
     d="m 159.4433,342.28438 c 0,0 -15.99686,-5.89358 -23.57432,-5.89358 -0.72406,0 -1.43974,0.0842 -2.15536,0.23572 -4.84958,1.02719 -9.31186,5.19481 -11.45037,7.46801 -0.83356,0.89245 -1.31342,1.49025 -1.31342,1.49025 0,0 0.0505,-0.58094 0.15154,-1.59971 0.49672,-5.35473 2.33214,-22.92601 5.62415,-34.17432 1.17869,-4.01607 2.53425,-7.22386 4.09182,-8.78143 3.62876,-3.63719 5.30421,-7.99843 6.07878,-11.24831 0.65674,-2.78687 0.65674,-4.74855 0.65674,-4.74855 l -6.13773,-2.6437 -1.13665,-7.42592 c -0.20206,0.8756 -1.1366,2.58476 -4.27702,5.85992 -0.26943,0.2778 -0.56414,0.51357 -0.87565,0.71563 -4.52964,2.84576 -13.7657,-2.10485 -18.7416,-5.22004 2.07119,-7.19858 5.82626,-13.78256 12.64596,-14.86021 15.99686,-2.52582 15.99686,-11.78716 26.10015,-1.68388 0.83351,0.83351 1.67545,1.63337 2.51739,2.40794 3.23307,6.17986 4.41176,14.46453 4.83273,20.22342 0.30314,4.03287 0.22734,6.83655 0.22734,6.83655 0,0 4.2097,25.25821 10.94522,30.30985 6.73552,5.05164 -4.2097,22.73238 -4.2097,22.73238 z"
     fill="#2f2e41"
     id="path924"
     style="fill:#241c1c" />
  <polygon
     points="142.6045,325.44557 142.6045,301.87125 128.29151,301.87125 116.91538,318.55786 "
     fill="#ffb6b6"
     id="polygon926" />
  <polygon
     points="142.6045,325.44557 142.6045,301.87125 128.29151,301.87125 116.91538,318.55786 "
     opacity="0.1"
     id="polygon928" />
  <path
     d="m 144.20219,317.94381 -24.41626,-10.10328 c 0,0 -32.83567,14.31298 -30.30985,42.09701 2.52582,27.78403 26.10015,75.77462 26.10015,75.77462 l 47.14865,-20.20656 -5.05164,-53.88417 -13.47104,-33.67761 z"
     fill="#e6e6e6"
     id="path930" />
  <circle
     cx="133.73351"
     cy="287.78009"
     r="21.54104"
     fill="#ffb6b6"
     id="circle932" />
  <path
     d="m 162.81106,279.9808 c -4.2097,4.2097 -7.57746,8.4194 -7.57746,8.4194 l -1.68388,-6.73552 c 0,0 -0.38731,0.28623 -1.06928,0.74091 -2.66894,1.81857 -9.83386,6.3903 -15.58432,7.3754 -2.55948,0.43777 -4.83273,0.15992 -6.31455,-1.38079 -3.14042,-3.27516 -4.07496,-4.98432 -4.27702,-5.85992 l -1.13665,7.42592 -6.13773,2.6437 c 0,0 0,9.24449 6.73552,15.99686 0.32837,0.32837 0.64831,0.73248 0.95982,1.20397 3.21622,4.84958 5.52313,16.72092 6.98809,26.81577 1.29657,8.97511 1.9196,16.53572 1.9196,16.53572 0,0 -6.37344,-7.98158 -13.36996,-9.06771 -0.38731,-0.0589 -0.77462,-0.10103 -1.16188,-0.10946 -0.12631,-0.0168 -0.261,-0.0168 -0.38731,-0.0168 -7.57746,0 -23.57432,5.89358 -23.57432,5.89358 0,0 -10.94522,-17.68074 -4.2097,-22.73238 6.73552,-5.05164 10.94522,-30.30985 10.94522,-30.30985 0,0 -0.27785,-10.81053 2.50897,-20.50127 2.07119,-7.19858 5.82626,-13.78256 12.64596,-14.86021 15.99686,-2.52582 15.99686,-11.78716 26.10015,-1.68388 0.83351,0.83351 1.67545,1.63337 2.51739,2.40794 9.41288,8.65517 19.02788,13.9341 15.16335,17.79863 z"
     fill="#2f2e41"
     id="path934"
     style="fill:#2b1100" />
  <rect
     x="60.3339"
     y="393"
     width="8"
     height="158"
     fill="#3f3d56"
     id="rect936"
     style="fill:#2b1100" />
  <rect
     x="254.33389"
     y="393"
     width="8"
     height="158"
     fill="#3f3d56"
     id="rect938"
     style="fill:#2b1100" />
  <rect
     x="158.33389"
     y="326"
     width="53"
     height="53"
     fill="#498736"
     id="rect940" />
  <g
     id="g948">
    <polygon
       points="158.09421,373.93283 127.78436,408.76065 127.78436,382.35224 149.33339,368.64833 "
       fill="#ffb6b6"
       id="polygon942" />
    <path
       d="m 98.31645,329.31001 c 0,0 -14.31298,3.36776 -7.57746,22.73238 6.73552,19.36462 28.62597,59.77775 35.36149,57.25193 6.73552,-2.52582 7.57746,-27.78403 7.57746,-27.78403 0,0 -0.84194,0.84194 -4.2097,-2.52582 -3.36776,-3.36776 -3.36776,-1.82973 -3.36776,-5.54554 0,-3.71581 -2.75454,-6.47034 -2.75454,-6.47034 l -3.13904,-6.50681 c 0,0 0,-30.30985 -12.6291,-31.99373 -12.6291,-1.68388 -9.26134,0.84194 -9.26134,0.84194 z"
       fill="#e6e6e6"
       id="path944" />
    <ellipse
       cx="158.93616"
       cy="366.77634"
       rx="14.31298"
       ry="8.8403702"
       transform="rotate(-45,158.93615,366.77634)"
       fill="#ffb6b6"
       id="ellipse946" />
  </g>
  <rect
     x="36.3339"
     y="387"
     width="242"
     height="18"
     fill="#3f3d56"
     id="rect950"
     style="fill:#241c1c" />
  <rect
     x="483.3339"
     y="243"
     width="46"
     height="25"
     rx="5.12992"
     ry="5.12992"
     fill="#3f3d56"
     id="rect954"
     style="fill:#22280b" />
  <rect
     x="558.3339"
     y="257.74015"
     width="46"
     height="10.25985"
     rx="5.12992"
     ry="5.12992"
     fill="#498736"
     id="rect956" />
</svg>
