<?xml version="1.0" encoding="UTF-8" standalone="no"?>
<svg
   data-name="Layer 1"
   width="689.16222"
   height="554.20406"
   viewBox="0 0 689.16222 554.20406"
   version="1.1"
   id="svg60"
   sodipodi:docname="facts.svg"
   inkscape:version="1.2.1 (9c6d41e, 2022-07-14)"
   xmlns:inkscape="http://www.inkscape.org/namespaces/inkscape"
   xmlns:sodipodi="http://sodipodi.sourceforge.net/DTD/sodipodi-0.dtd"
   xmlns="http://www.w3.org/2000/svg"
   xmlns:svg="http://www.w3.org/2000/svg"
   xmlns:rdf="http://www.w3.org/1999/02/22-rdf-syntax-ns#"
   xmlns:cc="http://creativecommons.org/ns#"
   xmlns:dc="http://purl.org/dc/elements/1.1/">
  <metadata
     id="metadata66">
    <rdf:RDF>
      <cc:Work
         rdf:about="">
        <dc:format>image/svg+xml</dc:format>
        <dc:type
           rdf:resource="http://purl.org/dc/dcmitype/StillImage" />
        <dc:title />
      </cc:Work>
    </rdf:RDF>
  </metadata>
  <defs
     id="defs64" />
  <sodipodi:namedview
     pagecolor="#ffffff"
     bordercolor="#666666"
     borderopacity="1"
     objecttolerance="10"
     gridtolerance="10"
     guidetolerance="10"
     inkscape:pageopacity="0"
     inkscape:pageshadow="2"
     inkscape:window-width="1366"
     inkscape:window-height="682"
     id="namedview62"
     showgrid="false"
     inkscape:zoom="0.45651057"
     inkscape:cx="414.01013"
     inkscape:cy="381.15218"
     inkscape:window-x="0"
     inkscape:window-y="25"
     inkscape:window-maximized="1"
     inkscape:current-layer="svg60"
     inkscape:showpageshadow="2"
     inkscape:pagecheckerboard="0"
     inkscape:deskcolor="#d1d1d1" />
  <path
     d="M902.90224,708.1884l-271.75.30733a1.19068,1.19068,0,0,1,0-2.38137l271.75-.30733a1.19068,1.19068,0,0,1,0,2.38137Z"
     transform="translate(-214.9307 -154.29167)"
     fill="#cacaca"
     id="path48" />
  <polygon
     points="405.042,34.597 262.385,34.597 262.385,109.64 260.385,109.64 260.385,32.597 405.042,32.597 "
     fill="#3f3d56"
     id="polygon22"
     transform="translate(117.07893,76.322021)" />
  <circle
     cx="544.30389"
     cy="104.10202"
     r="27.780001"
     fill="#498736"
     id="circle24" />
  <path
     d="m 540.51415,118.56022 a 3.08927,3.08927 0 0 1 -2.47187,-1.23631 l -7.57881,-10.10525 a 3.090072,3.090072 0 1 1 4.94424,-3.70792 l 4.95831,6.61058 12.7348,-19.101939 a 3.0902,3.0902 0 1 1 5.1424,3.42827 L 543.0856,117.18408 a 3.09148,3.09148 0 0 1 -2.48544,1.37513 c -0.0287,5e-4 -0.0573,0.001 -0.086,0.001 z"
     fill="#ffffff"
     id="path26" />
  <polygon
     points="307.042,371.728 164.385,371.728 164.385,296.685 162.385,296.685 162.385,373.728 307.042,373.728 "
     fill="#3f3d56"
     id="polygon28"
     transform="translate(117.07893,76.322021)" />
  <circle
     cx="446.30389"
     cy="450.10202"
     r="27.780001"
     fill="#498736"
     id="circle30" />
  <path
     d="m 442.51415,464.56022 a 3.08927,3.08927 0 0 1 -2.47187,-1.23631 l -7.57881,-10.10525 a 3.090072,3.090072 0 1 1 4.94424,-3.70792 l 4.95831,6.61058 12.7348,-19.10194 a 3.0902,3.0902 0 1 1 5.1424,3.42827 l -15.15762,22.73643 a 3.09148,3.09148 0 0 1 -2.48544,1.37513 c -0.0287,5e-4 -0.0573,10e-4 -0.086,10e-4 z"
     fill="#ffffff"
     id="path32" />
  <path
     d="m 200.70735,230.03035 a 58.77888,58.77888 0 0 1 16.04834,-40.42676 l -35.42334,-48.75537 a 17.27493,17.27493 0 0 0 -26.06348,-2.19678 126.47218,126.47218 0 0 0 -38.18994,90.95508 128.78525,128.78525 0 0 0 1.42725,19.11817 17.39208,17.39208 0 0 0 8.05713,12.231 17.20044,17.20044 0 0 0 14.38232,1.728 l 61.16553,-19.874 a 59.15048,59.15048 0 0 1 -1.40381,-12.77934 z"
     fill="#f2f2f2"
     id="path50"
     style="fill:#ccffaa" />
  <path
     d="m 203.96028,249.3492 -63.58984,20.66162 a 17.25669,17.25669 0 0 0 -10.1919,24.00635 127.485,127.485 0 0 0 94.86133,69.62353 17.29333,17.29333 0 0 0 13.89307,-3.97265 17.25258,17.25258 0 0 0 6.022,-13.1045 V 287.17097 A 59.11375,59.11375 0 0 1 203.96028,249.3492 Z"
     fill="#e6e6e6"
     id="path52"
     style="fill:#808000" />
  <path
     d="m 395.19172,286.45808 a 19.26609,19.26609 0 0 0 -11.80517,-10.8457 l -69.353,-22.53418 a 59.04575,59.04575 0 0 1 -47.06885,35.4917 v 72.25928 a 19.24418,19.24418 0 0 0 22.16944,19.01074 141.91776,141.91776 0 0 0 105.59863,-77.50391 19.08863,19.08863 0 0 0 0.45895,-15.87793 z"
     fill="#3f3d56"
     id="path54"
     style="fill:#502d16" />
  <path
     d="m 377.96123,120.71541 a 19.22962,19.22962 0 0 0 -29.01368,2.44531 l -47.415,65.26123 a 58.81036,58.81036 0 0 1 17.1748,41.6084 c 0,1.437 -0.0693,2.85645 -0.17041,4.26758 l 75.36914,24.48926 a 19.26508,19.26508 0 0 0 24.979,-15.53907 143.32936,143.32936 0 0 0 1.58887,-21.2832 140.78836,140.78836 0 0 0 -42.51272,-101.24951 z"
     fill="#498736"
     id="path56" />
  <path
     d="m 259.70735,171.03035 a 58.706,58.706 0 0 1 28.9668,7.60645 l 28.93994,-39.83252 a 17.33718,17.33718 0 0 0 2.83545,-14.249 16.99427,16.99427 0 0 0 -8.791,-11.2041 127.62618,127.62618 0 0 0 -115.3789,-0.168 17.4365,17.4365 0 0 0 -9.09375,11.47071 17.18636,17.18636 0 0 0 2.80957,14.15332 l 32.83007,45.187 a 58.7338,58.7338 0 0 1 36.88182,-12.96386 z"
     fill="#e6e6e6"
     id="path58"
     style="fill:#c8b7b7" />
</svg>
