<?xml version="1.0" encoding="UTF-8" standalone="no"?>
<svg
   data-name="Layer 1"
   width="500"
   height="500"
   viewBox="0 0 500 500.00001"
   version="1.1"
   id="svg2605"
   sodipodi:docname="interactive.svg"
   xml:space="preserve"
   inkscape:version="1.2.1 (9c6d41e, 2022-07-14)"
   xmlns:inkscape="http://www.inkscape.org/namespaces/inkscape"
   xmlns:sodipodi="http://sodipodi.sourceforge.net/DTD/sodipodi-0.dtd"
   xmlns="http://www.w3.org/2000/svg"
   xmlns:svg="http://www.w3.org/2000/svg"><defs
     id="defs2609" /><sodipodi:namedview
     id="namedview2607"
     pagecolor="#ffffff"
     bordercolor="#000000"
     borderopacity="0.25"
     inkscape:showpageshadow="2"
     inkscape:pageopacity="0.0"
     inkscape:pagecheckerboard="0"
     inkscape:deskcolor="#d1d1d1"
     showgrid="false"
     inkscape:zoom="0.71909563"
     inkscape:cx="-68.836463"
     inkscape:cy="251.70505"
     inkscape:window-width="1366"
     inkscape:window-height="682"
     inkscape:window-x="0"
     inkscape:window-y="25"
     inkscape:window-maximized="1"
     inkscape:current-layer="svg2605" /><path
     id="e4b1ee1b-a1a6-4c2a-970c-d47d8b3fd870-138"
     data-name="Path 2362"
     d="M 160.97341,372.13741 H 19.71262 a 2.6192345,2.6192345 0 0 1 -2.615805,-2.6158 V 248.72418 a 2.6192345,2.6192345 0 0 1 2.615805,-2.6158 h 141.26079 a 2.6192345,2.6192345 0 0 1 2.6158,2.6158 v 120.79694 a 2.6187445,2.6187445 0 0 1 -2.6158,2.6158 z M 19.71262,247.15264 a 1.5715407,1.5715407 0 0 0 -1.568112,1.56811 v 120.80037 a 1.5715407,1.5715407 0 0 0 1.568112,1.56811 h 141.26079 a 1.5710506,1.5710506 0 0 0 1.5681,-1.56811 V 248.72418 a 1.5715407,1.5715407 0 0 0 -1.5681,-1.56811 z"
     fill="#3f3d56"
     style="stroke-width:0.490035" /><circle
     id="b10e3043-e731-4e82-8fca-75f9298f00b8"
     data-name="Ellipse 474"
     cx="41.661278"
     cy="267.35037"
     r="10.655801"
     fill="#498736"
     style="fill:#008000;stroke-width:0.490035" /><path
     id="b8c117d2-374b-429b-9a52-be2e8d6b8684-139"
     data-name="Path 2363"
     d="m 66.27178,260.24636 a 1.7758865,1.7758865 0 0 0 0,3.55177 h 83.72534 a 1.7758865,1.7758865 0 0 0 0,-3.55177 z"
     fill="#cccccc"
     style="stroke-width:0.490035" /><path
     id="b1daea5a-aca4-46bb-ab1c-9e5888030a38-140"
     data-name="Path 2364"
     d="m 66.27178,270.90265 a 1.7758865,1.7758865 0 0 0 0,3.55177 h 36.02734 a 1.7758865,1.7758865 0 0 0 0,-3.55177 z"
     fill="#cccccc"
     style="stroke-width:0.490035" /><path
     id="b1bce2c7-12e1-4551-8863-d6d142670d08-144"
     data-name="Path 2375"
     d="M 194.53538,356.4666 H 53.274104 a 2.6187445,2.6187445 0 0 1 -2.615805,-2.6158 V 291.858 a 2.6187445,2.6187445 0 0 1 2.615805,-2.61581 H 194.53538 a 2.6187445,2.6187445 0 0 1 2.6158,2.61581 v 61.9928 a 2.6187445,2.6187445 0 0 1 -2.6158,2.6158 z"
     fill="#498736"
     style="fill:#784421;stroke-width:0.490035" /><path
     id="b8b7ef86-e6be-48b5-b7f8-365881aa5bd2-145"
     data-name="Path 2376"
     d="m 82.04207,310.84977 a 1.77589,1.77589 0 0 0 0,3.55178 h 83.72583 a 1.77589,1.77589 0 0 0 0,-3.55178 z"
     fill="#ffffff"
     style="stroke-width:0.490035" /><path
     id="a9b62e3b-06cf-4a55-8c8f-4aeba6e5e4c7-146"
     data-name="Path 2377"
     d="m 82.04207,321.1405 a 1.7758865,1.7758865 0 0 0 0,3.55177 h 83.72583 a 1.7758865,1.7758865 0 0 0 0,-3.55177 z"
     fill="#ffffff"
     style="stroke-width:0.490035" /><path
     id="a12f9c39-a43a-4056-b48c-3363dc06a37f-147"
     data-name="Path 2378"
     d="m 82.04207,331.30676 a 1.7758865,1.7758865 0 0 0 0,3.55177 h 36.02734 a 1.7758865,1.7758865 0 0 0 0,-3.55177 z"
     fill="#ffffff"
     style="stroke-width:0.490035" /><g
     id="g5303"
     transform="matrix(0.89098734,0,0,0.89098734,-660.72218,141.94627)"><path
       id="b281e673-bc66-4b3c-8141-26a0e4a40fd7-133"
       data-name="Path 2359"
       d="M 979.43891,311.26333 H 817.18266 a 3.0085292,3.0085292 0 0 1 -3.00459,-3.00459 v -40.24956 a 3.0085292,3.0085292 0 0 1 3.00459,-3.00459 h 162.25625 a 3.0085292,3.0085292 0 0 1 3.00459,3.00459 v 40.249 a 3.0085292,3.0085292 0 0 1 -3.00459,3.00515 z M 817.18266,266.20406 a 1.8051175,1.8051175 0 0 0 -1.80118,1.80118 v 40.249 a 1.8051175,1.8051175 0 0 0 1.80118,1.80117 h 162.25625 a 1.8045546,1.8045546 0 0 0 1.80118,-1.80117 v -40.24506 a 1.8045546,1.8045546 0 0 0 -1.80118,-1.80118 z"
       fill="#3f3d56"
       style="stroke-width:0.562868" /><circle
       id="b3fc6bd5-ca87-44d7-abba-b33fcf0fce6e"
       data-name="Ellipse 472"
       cx="801.867"
       cy="347.60263"
       r="12.239564"
       fill="#e6e6e6"
       style="stroke-width:0.562868" /><path
       id="a4c0ef2a-4063-4b4c-b7a5-712e67abf83e-134"
       data-name="Path 2357"
       d="m 830.13537,339.86544 a 2.0398335,2.0398335 0 0 0 0,4.07966 h 96.16937 a 2.0398374,2.0398374 0 1 0 0.008,-4.07966 z"
       fill="#e6e6e6"
       style="stroke-width:0.562868" /><path
       id="b6aac15c-fc94-4bcf-bd22-2b2a2d48a317-135"
       data-name="Path 2358"
       d="m 830.13537,352.10559 a 2.0398389,2.0398389 0 0 0 -0.008,4.07967 h 41.39011 a 2.039835,2.039835 0 0 0 0,-4.07967 z"
       fill="#e6e6e6"
       style="stroke-width:0.562868" /><circle
       id="b30606c0-bedc-4458-8bc1-74f9b5197cfe"
       data-name="Ellipse 473"
       cx="842.39349"
       cy="287.93863"
       r="12.239564"
       fill="#e6e6e6"
       style="stroke-width:0.562868" /><path
       id="b0251ef9-ec49-4884-8989-e65898cec086-136"
       data-name="Path 2360"
       d="m 870.66187,280.20143 a 2.039835,2.039835 0 0 0 0,4.07967 h 96.16936 a 2.039835,2.039835 0 0 0 0,-4.07967 z"
       fill="#e6e6e6"
       style="stroke-width:0.562868" /><path
       id="f3fbb845-d219-495e-9ae9-9928c3e8cc79-137"
       data-name="Path 2361"
       d="m 870.66187,292.44159 a 2.0398335,2.0398335 0 0 0 0,4.07966 h 41.38205 a 2.0398335,2.0398335 0 0 0 0,-4.07966 z"
       fill="#e6e6e6"
       style="stroke-width:0.562868" /><path
       id="a71493d8-729a-4860-baf4-314f557d0142-149"
       data-name="Path 2356"
       d="M 938.91242,370.92733 H 776.65616 a 3.0085292,3.0085292 0 0 1 -3.00459,-3.00459 v -40.24956 a 3.0079663,3.0079663 0 0 1 3.00459,-3.00459 h 162.25626 a 3.0085292,3.0085292 0 0 1 3.00459,3.00459 v 40.249 a 3.0085292,3.0085292 0 0 1 -3.00459,3.00459 z M 776.65616,325.86806 a 1.8051175,1.8051175 0 0 0 -1.80117,1.80118 v 40.249 a 1.8051175,1.8051175 0 0 0 1.80117,1.80118 h 162.25626 a 1.8045546,1.8045546 0 0 0 1.80118,-1.80118 v -40.24506 a 1.8051175,1.8051175 0 0 0 -1.80118,-1.80118 z"
       fill="#3f3d56"
       style="stroke-width:0.562868" /></g><g
     id="g15904"><path
       d="M 160.24115,172.40924 H 28.80936 a 7.9236439,7.9236439 0 0 1 -7.91469,-7.91469 V 69.99797 a 7.9236391,7.9236391 0 0 1 7.91469,-7.91469 h 131.43179 a 7.9236439,7.9236439 0 0 1 7.91469,7.91469 v 94.49658 a 7.9236487,7.9236487 0 0 1 -7.91469,7.91469 z"
       fill="#e6e6e6"
       id="path5494"
       style="stroke-width:0.479678" /><path
       d="m 31.23879,166.10008 h 126.57295 a 3.8374246,3.8374246 0 0 0 3.83743,-3.83742 V 72.2298 a 3.8374246,3.8374246 0 0 0 -3.83743,-3.83742 H 31.23879 a 3.8374246,3.8374246 0 0 0 -3.83742,3.83742 v 90.03286 a 3.8374246,3.8374246 0 0 0 3.83742,3.83742 z"
       fill="#ffffff"
       id="path5496"
       style="stroke-width:0.479678" /><path
       d="m 40.59543,114.50254 a 2.8615867,2.8615867 0 1 0 0,5.72317 H 148.4551 a 2.8615867,2.8615867 0 1 0 0,-5.72317 z"
       fill="#e6e6e6"
       id="path5516"
       style="stroke-width:0.479678" /><path
       d="m 40.59543,132.11228 a 2.8615867,2.8615867 0 1 0 0,5.72317 H 148.4551 a 2.8615867,2.8615867 0 0 0 0,-5.72317 z"
       fill="#e6e6e6"
       id="path5518"
       style="stroke-width:0.479678" /><path
       d="m 88.80211,150.60252 a 2.8615867,2.8615867 0 0 0 0,5.72317 h 11.44631 a 2.8615867,2.8615867 0 0 0 0,-5.72317 z"
       fill="#498736"
       id="path5520"
       style="fill:#502d16;stroke-width:0.479678" /><path
       d="m 79.18725,78.16678 a 0.88135571,0.88135571 0 0 0 -0.88049,0.88048 v 22.35117 a 0.88135571,0.88135571 0 0 0 0.88049,0.88048 h 30.67603 a 0.88135571,0.88135571 0 0 0 0.88048,-0.88048 V 79.04725 a 0.88135571,0.88135571 0 0 0 -0.88048,-0.88048 z"
       fill="#498736"
       id="path5522"
       style="fill:#502d16;stroke-width:0.479678" /><circle
       cx="94.525284"
       cy="87.750877"
       r="4.8426809"
       fill="#ffffff"
       id="circle5524"
       style="stroke-width:0.479678" /><path
       d="m 102.44966,100.07769 a 4.8053335,4.8053335 0 0 1 -0.5283,2.20125 H 87.12918 a 4.8420816,4.8420816 0 0 1 4.31437,-7.0439 h 6.16342 a 4.8399518,4.8399518 0 0 1 4.84269,4.8372 z"
       fill="#ffffff"
       id="path5526"
       style="stroke-width:0.479678" /><circle
       cx="94.525284"
       cy="87.750877"
       r="4.8426809"
       fill="#ffffff"
       id="circle5528"
       style="stroke-width:0.479678" /><path
       d="m 102.44966,100.07769 a 4.8053335,4.8053335 0 0 1 -0.5283,2.20125 H 87.12918 a 4.8420816,4.8420816 0 0 1 4.31437,-7.0439 h 6.16342 a 4.8399518,4.8399518 0 0 1 4.84269,4.8372 z"
       fill="#ffffff"
       id="path5530"
       style="fill:#ffffff;stroke-width:0.479678" /><circle
       cx="94.525284"
       cy="38.443596"
       r="11.446333"
       fill="#e6e6e6"
       id="circle5532"
       style="stroke-width:0.479678" /><circle
       cx="94.525284"
       cy="38.443596"
       r="5.7231641"
       fill="#498736"
       id="circle5534"
       style="fill:#008000;stroke-width:0.479678" /></g><path
     id="fd990326-c176-439f-9263-07fe4201e145-520"
     data-name="Path 2960"
     d="m -568.50039,616.06795 h 470.13636 a 0.89841,0.89841 0 0 0 0,-1.79682 h -470.13636 a 0.89841,0.89841 0 0 0 0,1.79682 z"
     fill="#cccccc"
     style="stroke-width:0.720457" /><g
     id="g21595"
     transform="matrix(0.59290438,0,0,0.4877829,676.47024,183.72211)"><path
       d="m -334.21819,172.64169 h -119.43279 v -2.46161 h -54.15546 v 2.46161 h -119.92511 a 8.0787218,8.0787218 0 0 0 -8.07873,8.07873 v 163.5402 a 8.0787494,8.0787494 0 0 0 8.07873,8.07876 h 293.51336 a 8.0787494,8.0787494 0 0 0 8.07873,-8.07876 v -163.5402 a 8.0787218,8.0787218 0 0 0 -8.07873,-8.07873 z"
       fill="#3f3d56"
       id="path21367"
       style="fill:#241c1c;stroke-width:0.459057" /><rect
       x="-624.97919"
       y="186.91904"
       width="288.00864"
       height="162.4664"
       fill="#498736"
       id="rect21369"
       style="fill:#ffffff;stroke-width:0.459057" /><circle
       cx="-481.22104"
       cy="179.53421"
       r="2.9539335"
       fill="#498736"
       id="circle21371"
       style="stroke-width:0.459057" /><polygon
       points="50.406,49.754 498.374,403.667 50.406,403.667 "
       opacity="0.1"
       id="polygon21373"
       transform="matrix(0.45905741,0,0,0.45905741,-648.11834,164.07927)" /><circle
       cx="-579.91449"
       cy="309.54373"
       r="27.684284"
       fill="#f2f2f2"
       id="circle21375"
       style="stroke-width:0.459057" /><rect
       x="-414.02075"
       y="274.53845"
       width="26.903152"
       height="5.6215529"
       fill="#3f3d56"
       id="rect21377"
       style="fill:#552200;stroke-width:0.459057" /><rect
       x="-446.54547"
       y="230.77066"
       width="91.95256"
       height="2.4092388"
       fill="#3f3d56"
       id="rect21379"
       style="fill:#552200;stroke-width:0.459057" /><rect
       x="-446.54547"
       y="238.3999"
       width="91.95256"
       height="2.4092388"
       fill="#3f3d56"
       id="rect21381"
       style="fill:#552200;stroke-width:0.459057" /><rect
       x="-446.54547"
       y="246.02916"
       width="91.95256"
       height="2.4092388"
       fill="#3f3d56"
       id="rect21383"
       style="fill:#552200;stroke-width:0.459057" /><rect
       x="-446.54547"
       y="253.6584"
       width="91.95256"
       height="2.4092388"
       fill="#3f3d56"
       id="rect21385"
       style="fill:#552200;stroke-width:0.459057" /><rect
       x="-446.54547"
       y="261.28766"
       width="91.95256"
       height="2.4092388"
       fill="#3f3d56"
       id="rect21387"
       style="fill:#552200;stroke-width:0.459057" /><rect
       x="-365.83603"
       y="190.21515"
       width="11.24311"
       height="11.24311"
       fill="#f2f2f2"
       id="rect21389"
       style="stroke-width:0.459057" /><path
       d="m -349.3729,206.67828 h -13.65236 v -13.65237 h 13.65236 z m -13.05876,-0.59356 h 12.46519 v -12.4652 h -12.46519 z"
       fill="#3f3d56"
       id="path21391"
       style="stroke-width:0.459057" /><path
       d="m -318.05281,346.4315 h -28.10777 v -2.02514 a 0.40152834,0.40152834 0 0 0 -0.40154,-0.40155 h -9.63695 a 0.40152834,0.40152834 0 0 0 -0.40154,0.40155 v 2.02514 h -6.02309 v -2.02514 a 0.40152374,0.40152374 0 0 0 -0.40154,-0.40155 h -9.63695 a 0.40152834,0.40152834 0 0 0 -0.40154,0.40155 v 2.02514 h -6.02309 v -2.02514 a 0.40152834,0.40152834 0 0 0 -0.40154,-0.40155 h -9.63693 a 0.40152834,0.40152834 0 0 0 -0.40155,0.40155 v 2.02514 h -6.0231 v -2.02514 a 0.40152834,0.40152834 0 0 0 -0.40155,-0.40155 h -9.63695 a 0.40152834,0.40152834 0 0 0 -0.40153,0.40155 v 2.02514 h -6.0231 v -2.02514 a 0.40152834,0.40152834 0 0 0 -0.40154,-0.40155 h -9.63695 a 0.40152374,0.40152374 0 0 0 -0.40154,0.40155 v 2.02514 h -6.02309 v -2.02514 a 0.40152834,0.40152834 0 0 0 -0.40154,-0.40155 h -9.63695 a 0.40152834,0.40152834 0 0 0 -0.40154,0.40155 v 2.02514 h -6.02311 v -2.02514 a 0.40152834,0.40152834 0 0 0 -0.40154,-0.40155 h -75.48943 a 0.40152834,0.40152834 0 0 0 -0.40153,0.40155 v 2.02514 h -6.0231 v -2.02514 a 0.40152834,0.40152834 0 0 0 -0.40154,-0.40155 h -9.63695 a 0.40152374,0.40152374 0 0 0 -0.40153,0.40155 v 2.02514 h -6.0231 v -2.02514 a 0.40152834,0.40152834 0 0 0 -0.40154,-0.40155 h -9.63695 a 0.40152834,0.40152834 0 0 0 -0.40154,0.40155 v 2.02514 h -6.02309 v -2.02514 a 0.40152374,0.40152374 0 0 0 -0.40154,-0.40155 h -9.63695 a 0.40152834,0.40152834 0 0 0 -0.40154,0.40155 v 2.02514 h -6.02308 v -2.02514 a 0.40152834,0.40152834 0 0 0 -0.40153,-0.40155 h -9.63697 a 0.40152834,0.40152834 0 0 0 -0.40155,0.40155 v 2.02514 h -6.02309 v -2.02514 a 0.40152834,0.40152834 0 0 0 -0.40154,-0.40155 h -9.63695 a 0.40152834,0.40152834 0 0 0 -0.40154,0.40155 v 2.02514 h -6.02309 v -2.02514 a 0.40152834,0.40152834 0 0 0 -0.40154,-0.40155 h -9.63695 a 0.40152374,0.40152374 0 0 0 -0.40154,0.40155 v 2.02514 h -18.47082 a 9.6369601,9.6369601 0 0 0 -9.63695,9.63695 v 4.3576 a 9.6369509,9.6369509 0 0 0 9.63695,9.63693 h 320.42858 a 9.6369463,9.6369463 0 0 0 9.63695,-9.63693 v -4.3576 a 9.6369555,9.6369555 0 0 0 -9.63695,-9.63695 z"
       fill="#3f3d56"
       id="path21393"
       style="fill:#241c1c;stroke-width:0.459057" /><path
       d="m -573.21331,326.83497 a 34.888363,34.888363 0 1 1 34.88836,-34.88836 34.927906,34.927906 0 0 1 -34.88836,34.88836 z m 0,-68.85861 a 33.970248,33.970248 0 1 0 33.97024,33.97025 34.00874,34.00874 0 0 0 -33.97024,-33.97025 z"
       fill="#3f3d56"
       id="path21395"
       style="fill:#241c1c;stroke-width:0.459057" /></g><g
     id="g21563"
     transform="matrix(0.59290438,0,0,0.4877829,449.01397,275.59217)"><path
       d="m -162.816,270.56141 h -1.09192 V 240.6485 a 17.312772,17.312772 0 0 0 -17.3128,-17.31279 h -63.37448 a 17.312767,17.312767 0 0 0 -17.31283,17.31279 v 164.10448 a 17.312772,17.312772 0 0 0 17.31283,17.31279 h 63.37448 a 17.312772,17.312772 0 0 0 17.3128,-17.31279 V 291.85391 h 1.09196 z"
       fill="#3f3d56"
       id="path21415"
       style="display:inline;fill:#241c1c;stroke-width:0.459057" /><path
       d="m -167.59475,241.66604 v 163.86513 a 12.929458,12.929458 0 0 1 -12.92714,12.93165 h -63.68036 A 12.929402,12.929402 0 0 1 -257.1293,405.53117 V 241.66604 a 12.928434,12.928434 0 0 1 12.92705,-12.92706 h 7.72594 a 6.1418209,6.1418209 0 0 0 5.68772,8.46043 h 36.30685 a 6.1417658,6.1417658 0 0 0 5.68772,-8.46043 h 8.27222 a 12.928471,12.928471 0 0 1 12.92705,12.92706 z"
       fill="#498736"
       id="path21417"
       style="display:inline;fill:#ffffff;stroke-width:0.459057" /><rect
       x="-221.84697"
       y="336.78479"
       width="18.969891"
       height="5.6215529"
       fill="#3f3d56"
       id="rect21419"
       style="fill:#552200;stroke-width:0.459057" /><rect
       x="-244.7807"
       y="293.01697"
       width="64.837395"
       height="2.4092388"
       fill="#3f3d56"
       id="rect21421"
       style="fill:#552200;stroke-width:0.459057" /><rect
       x="-244.7807"
       y="300.64624"
       width="64.837395"
       height="2.4092388"
       fill="#3f3d56"
       id="rect21423"
       style="fill:#552200;stroke-width:0.459057" /><rect
       x="-244.7807"
       y="308.27548"
       width="64.837395"
       height="2.4092388"
       fill="#3f3d56"
       id="rect21425"
       style="fill:#552200;stroke-width:0.459057" /><rect
       x="-244.7807"
       y="315.90472"
       width="64.837395"
       height="2.4092388"
       fill="#3f3d56"
       id="rect21427"
       style="fill:#552200;stroke-width:0.459057" /><rect
       x="-244.7807"
       y="323.534"
       width="64.837395"
       height="2.4092388"
       fill="#3f3d56"
       id="rect21429"
       style="fill:#552200;stroke-width:0.459057" /><rect
       x="-221.34023"
       y="261.02243"
       width="11.24311"
       height="11.24311"
       fill="#f2f2f2"
       id="rect21431"
       style="stroke-width:0.459057" /><path
       d="m -217.03621,263.83394 v 13.65237 h 13.65237 v -13.65237 z m 13.06018,13.06018 h -12.468 v -12.468 h 12.468 z"
       fill="#3f3d56"
       id="path21433"
       style="stroke-width:0.459057" /><path
       d="m -167.59475,388.03192 v 17.49927 a 12.929458,12.929458 0 0 1 -12.92714,12.93164 h -63.68036 a 12.929402,12.929402 0 0 1 -12.92705,-12.93164 v -88.23543 l 53.65004,42.38477 0.91811,0.72531 9.97991,7.88202 0.93189,0.73908 z"
       opacity="0.1"
       id="path21435"
       style="stroke-width:0.459057" /><circle
       cx="-217.87071"
       cy="393.01437"
       r="20.137852"
       fill="#f2f2f2"
       id="circle21437"
       style="stroke-width:0.459057" /><path
       d="m -211.93513,408.54719 a 25.248158,25.248158 0 1 1 25.24814,-25.24815 25.276725,25.276725 0 0 1 -25.24814,25.24815 z m 0,-49.5782 a 24.330043,24.330043 0 1 0 24.33003,24.33005 24.357416,24.357416 0 0 0 -24.33003,-24.33005 z"
       fill="#3f3d56"
       id="path21441"
       style="fill:#552200;stroke-width:0.459057" /></g><g
     id="g23819"
     transform="matrix(0.76837295,0,0,0.59945843,704.72371,-50.779158)"><path
       d="m -337.26873,485.47397 h -243.75734 a 24.668,24.668 0 0 1 -24.63995,-24.64012 V 138.07139 a 24.668,24.668 0 0 1 24.64,-24.64012 h 243.75729 a 24.668,24.668 0 0 1 24.64013,24.64012 v 322.76246 a 24.668,24.668 0 0 1 -24.64013,24.64012 z"
       fill="#e6e6e6"
       id="path23689" /><path
       d="m -430.30383,465.49564 h -133.588 a 22.46122,22.46122 0 0 1 -22.43542,-22.436 V 155.84522 a 22.46075,22.46075 0 0 1 22.43542,-22.43541 h 209.4887 a 22.46075,22.46075 0 0 1 22.43542,22.43541 v 211.31432 a 98.44763,98.44763 0 0 1 -98.33612,98.3361 z"
       fill="#ffffff"
       id="path23691" /><path
       d="m -375.30097,188.54975 h -167.69289 a 5.4690043,5.4690043 0 1 1 -0.0137,-10.938 h 167.70657 a 5.4690043,5.4690043 0 0 1 0.0137,10.938 z"
       fill="#498736"
       id="path23693" /><path
       d="m -375.30097,210.16058 h -167.69289 a 5.46929,5.46929 0 0 1 0,-10.93858 h 167.69289 a 5.46929,5.46929 0 0 1 0,10.93858 z"
       fill="#498736"
       id="path23695" /><path
       d="m -470.30305,231.77141 h -72.69084 a 5.46929,5.46929 0 1 1 0,-10.93858 h 72.69084 a 5.46929,5.46929 0 0 1 0,10.93858 z"
       fill="#498736"
       id="path23697" /><path
       d="m -375.30097,277.03254 h -167.69289 a 5.4690043,5.4690043 0 1 1 -0.0137,-10.938 h 167.70657 a 5.4690043,5.4690043 0 0 1 0.0137,10.938 z"
       fill="#e4e4e4"
       id="path23699" /><path
       d="m -375.30097,298.64337 h -167.69289 a 5.46929,5.46929 0 0 1 0,-10.93858 h 167.69289 a 5.46929,5.46929 0 0 1 0,10.93858 z"
       fill="#e4e4e4"
       id="path23701" /><path
       d="m -470.30305,320.25412 h -72.69084 a 5.46929,5.46929 0 1 1 0,-10.93858 h 72.69084 a 5.46929,5.46929 0 1 1 0,10.93858 z"
       fill="#e4e4e4"
       id="path23703" /><path
       d="m -375.30097,365.51526 h -167.69289 a 5.4690043,5.4690043 0 1 1 -0.0137,-10.938 h 167.70657 a 5.4690043,5.4690043 0 0 1 0.0137,10.938 z"
       fill="#e4e4e4"
       id="path23705" /><path
       d="m -375.30097,387.12612 h -167.69289 a 5.46929,5.46929 0 0 1 0,-10.93858 h 167.69289 a 5.46929,5.46929 0 0 1 0,10.93858 z"
       fill="#e4e4e4"
       id="path23707" /><path
       d="m -470.30305,408.73692 h -72.69084 a 5.4693,5.4693 0 0 1 0,-10.93858 h 72.69084 a 5.4693,5.4693 0 0 1 0,10.93858 z"
       fill="#e4e4e4"
       id="path23709" /></g><path
     id="fd990326-c176-439f-9263-07fe4201e145-520-3"
     data-name="Path 2960"
     d="m -693.79195,485.2448 h 652.5532 a 1.247,1.247 0 0 0 0,-2.494 h -652.5532 a 1.247,1.247 0 0 0 0,2.494 z"
     fill="#cccccc" /></svg>
