<?xml version="1.0" encoding="UTF-8" standalone="no"?>
<svg
   data-name="Layer 1"
   width="997"
   height="808"
   viewBox="0 0 997 808"
   version="1.1"
   id="svg419"
   sodipodi:docname="undraw_track_and_field_-33-qn.svg"
   inkscape:version="1.2.1 (9c6d41e, 2022-07-14)"
   xmlns:inkscape="http://www.inkscape.org/namespaces/inkscape"
   xmlns:sodipodi="http://sodipodi.sourceforge.net/DTD/sodipodi-0.dtd"
   xmlns="http://www.w3.org/2000/svg"
   xmlns:svg="http://www.w3.org/2000/svg">
  <sodipodi:namedview
     id="namedview421"
     pagecolor="#ffffff"
     bordercolor="#000000"
     borderopacity="0.25"
     inkscape:showpageshadow="2"
     inkscape:pageopacity="0.0"
     inkscape:pagecheckerboard="0"
     inkscape:deskcolor="#d1d1d1"
     showgrid="false"
     inkscape:zoom="0.59405941"
     inkscape:cx="498.26667"
     inkscape:cy="404"
     inkscape:window-width="1366"
     inkscape:window-height="682"
     inkscape:window-x="0"
     inkscape:window-y="25"
     inkscape:window-maximized="1"
     inkscape:current-layer="svg419" />
  <defs
     id="defs239">
    <linearGradient
       id="2f4d485d-57ea-446e-b436-4d82ba75f353-283"
       x1="570.56"
       y1="454"
       x2="570.56"
       y2="63.07"
       gradientUnits="userSpaceOnUse">
      <stop
         offset="0"
         stop-color="gray"
         stop-opacity="0.25"
         id="stop232" />
      <stop
         offset="0.54"
         stop-color="gray"
         stop-opacity="0.12"
         id="stop234" />
      <stop
         offset="1"
         stop-color="gray"
         stop-opacity="0.1"
         id="stop236" />
    </linearGradient>
  </defs>
  <title
     id="title241">track and field</title>
  <path
     d="M362.14,46.9c93,12.73,168.51,101.25,252.3,156.49,18.67,12.31,38.24,23.15,58.93,26.36,68.54,10.64,131.74-63.09,200.6-57.07,55.81,4.88,103.14,64,123.22,133.54s17,147.32,5.85,220.32c-17.46,114-56.14,226.15-123.47,300.3-11.11,12.24-23.52,23.69-37.79,26.47C818,858,795.95,837.85,775.37,821.19c-92.88-75.22-210.3-94.32-314-51.08-35.12,14.64-68.71,36-104.65,46.54-69.21,20.26-147.53-5.34-194.52-76s-54.63-186.8-9.86-260c18.69-30.55,44.45-52.12,64.07-81.6,49.3-74,31.1-148.82,25-235.6C235.4,77.94,307.81,39.47,362.14,46.9Z"
     transform="translate(-101.5 -46)"
     fill="#498736"
     opacity="0.1"
     id="path243" />
  <g
     opacity="0.2"
     id="g255">
    <path
       d="M784.88,591s27.51,27.51,12,68.33,26.62,108.7,26.62,108.7l-1.29-.21c-56.5-10-84.57-74.59-53.15-122.59C780.72,627.42,790.31,606.48,784.88,591Z"
       transform="translate(-101.5 -46)"
       fill="#498736"
       id="path245" />
    <path
       d="M784.88,591.5s27.51,27.51,12,68.33,26.62,108.7,26.62,108.7l-1.29-.21c-56.5-10-84.57-74.59-53.15-122.59C780.72,627.87,790.31,606.94,784.88,591.5Z"
       transform="translate(-101.5 -46)"
       opacity="0.1"
       id="path247" />
    <path
       d="M784.88,591s15.53,33.72,0,61.23-2.66,104.71,38.6,115.8"
       transform="translate(-101.5 -46)"
       fill="none"
       stroke="#535461"
       stroke-miterlimit="10"
       id="path249" />
    <path
       d="M735.89,702.3s31.39-5,34.25,23.13,60.36,32,60.36,32l-1.08.72c-47.48,31.17-92.86,19.85-86-21.53C745.95,721.27,745.74,705.81,735.89,702.3Z"
       transform="translate(-101.5 -46)"
       fill="#498736"
       id="path251" />
    <path
       d="M735.89,702.3s24.37,5.35,22.36,27.5,36.18,48.71,72.25,27.66"
       transform="translate(-101.5 -46)"
       fill="none"
       stroke="#535461"
       stroke-miterlimit="10"
       id="path253" />
  </g>
  <g
     opacity="0.2"
     id="g267">
    <path
       d="M458.6,547.68s22.86,22.86,10,56.77,22.12,90.32,22.12,90.32l-1.07-.18c-46.94-8.29-70.27-62-44.17-101.86C455.14,577.9,463.11,560.51,458.6,547.68Z"
       transform="translate(-101.5 -46)"
       fill="#498736"
       id="path257" />
    <path
       d="M458.6,548.06s22.86,22.86,10,56.77,22.12,90.32,22.12,90.32L489.6,695c-46.94-8.29-70.27-62-44.17-101.86C455.14,578.28,463.11,560.89,458.6,548.06Z"
       transform="translate(-101.5 -46)"
       opacity="0.1"
       id="path259" />
    <path
       d="M458.6,547.68s12.9,28,0,50.87-2.21,87,32.07,96.22"
       transform="translate(-101.5 -46)"
       fill="none"
       stroke="#535461"
       stroke-miterlimit="10"
       id="path261" />
    <path
       d="M417.89,640.13S444,636,446.35,659.35,496.5,686,496.5,686l-.9.6c-39.45,25.9-77.16,16.5-71.47-17.89C426.24,655.88,426.07,643,417.89,640.13Z"
       transform="translate(-101.5 -46)"
       fill="#498736"
       id="path263" />
    <path
       d="M417.89,640.13s20.24,4.44,18.58,22.85,30.06,40.48,60,23"
       transform="translate(-101.5 -46)"
       fill="none"
       stroke="#535461"
       stroke-miterlimit="10"
       id="path265" />
  </g>
  <g
     opacity="0.2"
     id="g279">
    <path
       d="M362.6,403.68s22.86,22.86,10,56.77,22.12,90.32,22.12,90.32l-1.07-.18c-46.94-8.29-70.27-62-44.17-101.86C359.14,433.9,367.11,416.51,362.6,403.68Z"
       transform="translate(-101.5 -46)"
       fill="#498736"
       id="path269" />
    <path
       d="M362.6,404.06s22.86,22.86,10,56.77,22.12,90.32,22.12,90.32L393.6,551c-46.94-8.29-70.27-62-44.17-101.86C359.14,434.28,367.11,416.89,362.6,404.06Z"
       transform="translate(-101.5 -46)"
       opacity="0.1"
       id="path271" />
    <path
       d="M362.6,403.68s12.9,28,0,50.87-2.21,87,32.07,96.22"
       transform="translate(-101.5 -46)"
       fill="none"
       stroke="#535461"
       stroke-miterlimit="10"
       id="path273" />
    <path
       d="M321.89,496.13S348,492,350.35,515.35,400.5,542,400.5,542l-.9.6c-39.45,25.9-77.16,16.5-71.47-17.89C330.24,511.88,330.07,499,321.89,496.13Z"
       transform="translate(-101.5 -46)"
       fill="#498736"
       id="path275" />
    <path
       d="M321.89,496.13s20.24,4.44,18.58,22.85,30.06,40.48,60,23"
       transform="translate(-101.5 -46)"
       fill="none"
       stroke="#535461"
       stroke-miterlimit="10"
       id="path277" />
  </g>
  <polygon
     points="14.76 592.38 14.76 578.75 294.05 500.42 344 494.74 344 507.23 65.85 607.13 14.76 592.38"
     fill="#dfe5ee"
     id="polygon281" />
  <polygon
     points="14.76 592.38 14.76 578.75 294.05 500.42 344 494.74 344 507.23 65.85 607.13 14.76 592.38"
     opacity="0.05"
     id="polygon283" />
  <polygon
     points="14.76 578.75 294.05 486.79 342.87 494.74 65.85 593.51 14.76 578.75"
     fill="#dfe5ee"
     id="polygon285" />
  <rect
     x="57.9"
     y="370.99"
     width="18.17"
     height="211.17"
     fill="#dfe5ee"
     id="rect287" />
  <rect
     x="275.88"
     y="322.17"
     width="18.17"
     height="185.06"
     fill="#dfe5ee"
     id="rect289" />
  <polygon
     points="339.46 264.27 339.46 321.04 112.67 371.7 85.84 377.7 19.3 392.56 0 386.88 0 321.04 102.91 301.42 128.52 296.54 315.62 260.87 339.46 264.27"
     fill="#dfe5ee"
     id="polygon291" />
  <polygon
     points="339.46 264.27 339.46 321.04 112.67 371.7 85.84 377.7 19.3 392.56 0 386.88 0 321.04 102.91 301.42 128.52 296.54 315.62 260.87 339.46 264.27"
     opacity="0.05"
     id="polygon293" />
  <polygon
     points="76.07 370.99 76.07 382.15 57.9 386.21 57.9 370.99 76.07 370.99"
     opacity="0.05"
     id="polygon295" />
  <polygon
     points="294.05 322.17 294.05 333.46 275.88 337.51 275.88 322.17 294.05 322.17"
     opacity="0.05"
     id="polygon297" />
  <polygon
     points="339.46 264.27 339.46 321.04 247.38 341.61 220.6 347.59 112.67 371.7 85.84 377.7 19.3 392.56 20.44 327.85 112.91 309.42 138.78 304.27 138.79 304.27 244.5 283.2 270.32 278.05 339.46 264.27"
     fill="#dfe5ee"
     id="polygon299" />
  <polygon
     points="138.79 304.27 112.67 371.7 85.84 377.7 112.91 309.42 102.91 301.42 128.52 296.54 138.78 304.27 138.79 304.27"
     fill="#498736"
     id="polygon301" />
  <polygon
     points="271.62 279.03 247.38 341.61 220.6 347.59 245.74 284.18 244.5 283.2 235.74 276.18 261.35 271.3 270.32 278.05 271.61 279.03 271.62 279.03"
     fill="#498736"
     id="polygon303" />
  <polygon
     points="61.88 578.47 80.04 574.21 80.04 578.47 61.88 582.73 61.88 578.47"
     opacity="0.05"
     id="polygon305" />
  <polygon
     points="278.72 503.54 296.88 499.28 296.88 503.54 278.72 507.8 278.72 503.54"
     opacity="0.05"
     id="polygon307" />
  <path
     d="M465,403.5s-11,17.94,11.49,21c0,0-16.49,11-14.49,26,0,0-11,11-14-6s-1-47-1-47S465,394.5,465,403.5Z"
     transform="translate(-101.5 -46)"
     opacity="0.05"
     id="path313" />
  <polygon
     points="333.76 647.38 333.76 633.75 613.05 555.42 663 549.74 663 562.23 384.85 662.13 333.76 647.38"
     fill="#dfe5ee"
     id="polygon321" />
  <polygon
     points="333.76 647.38 333.76 633.75 613.05 555.42 663 549.74 663 562.23 384.85 662.13 333.76 647.38"
     opacity="0.05"
     id="polygon323" />
  <polygon
     points="333.76 633.75 613.05 541.79 661.87 549.74 384.85 648.51 333.76 633.75"
     fill="#dfe5ee"
     id="polygon325" />
  <rect
     x="376.9"
     y="425.99"
     width="18.17"
     height="211.17"
     fill="#dfe5ee"
     id="rect327" />
  <rect
     x="594.88"
     y="377.17"
     width="18.17"
     height="185.06"
     fill="#dfe5ee"
     id="rect329" />
  <polygon
     points="658.46 319.27 658.46 376.04 431.67 426.7 404.84 432.7 338.3 447.56 319 441.88 319 376.04 421.9 356.42 447.52 351.54 634.62 315.87 658.46 319.27"
     fill="#dfe5ee"
     id="polygon331" />
  <polygon
     points="395.07 425.99 395.07 437.15 376.9 441.21 376.9 425.99 395.07 425.99"
     opacity="0.05"
     id="polygon335" />
  <polygon
     points="613.05 377.17 613.05 388.46 594.88 392.51 594.88 377.17 613.05 377.17"
     opacity="0.05"
     id="polygon337" />
  <polygon
     points="658.46 319.27 658.46 376.04 566.38 396.61 539.6 402.59 431.67 426.7 404.84 432.7 338.3 447.56 339.44 382.85 431.91 364.42 457.78 359.27 457.79 359.27 563.5 338.2 589.32 333.05 658.46 319.27"
     fill="#dfe5ee"
     id="polygon339" />
  <polygon
     points="457.79 359.27 431.67 426.7 404.84 432.7 431.91 364.42 421.9 356.42 447.52 351.54 457.78 359.27 457.79 359.27"
     fill="#498736"
     id="polygon341" />
  <polygon
     points="590.62 334.03 566.38 396.61 539.6 402.59 564.74 339.18 563.5 338.2 554.74 331.18 580.35 326.3 589.32 333.05 590.61 334.03 590.62 334.03"
     fill="#498736"
     id="polygon343" />
  <polygon
     points="380.88 633.47 399.04 629.21 399.04 633.47 380.88 637.73 380.88 633.47"
     opacity="0.05"
     id="polygon345" />
  <polygon
     points="597.72 558.54 615.88 554.28 615.88 558.54 597.72 562.79 597.72 558.54"
     opacity="0.05"
     id="polygon347" />
  <polygon
     points="667.76 717.38 667.76 703.75 947.05 625.42 997 619.74 997 632.23 718.85 732.13 667.76 717.38"
     fill="#dfe5ee"
     id="polygon391" />
  <polygon
     points="667.76 717.38 667.76 703.75 947.05 625.42 997 619.74 997 632.23 718.85 732.13 667.76 717.38"
     opacity="0.05"
     id="polygon393" />
  <polygon
     points="667.76 703.75 947.05 611.79 995.87 619.74 718.85 718.51 667.76 703.75"
     fill="#dfe5ee"
     id="polygon395" />
  <rect
     x="710.9"
     y="495.99"
     width="18.17"
     height="211.17"
     fill="#dfe5ee"
     id="rect397" />
  <rect
     x="928.88"
     y="447.17"
     width="18.17"
     height="185.06"
     fill="#dfe5ee"
     id="rect399" />
  <polygon
     points="992.46 389.27 992.46 446.04 765.67 496.7 738.84 502.7 672.3 517.56 653 511.88 653 446.04 755.9 426.42 781.52 421.54 968.62 385.87 992.46 389.27"
     fill="#dfe5ee"
     id="polygon401" />
  <polygon
     points="992.46 389.27 992.46 446.04 765.67 496.7 738.84 502.7 672.3 517.56 653 511.88 653 446.04 755.9 426.42 781.52 421.54 968.62 385.87 992.46 389.27"
     opacity="0.05"
     id="polygon403" />
  <polygon
     points="729.07 495.99 729.07 507.15 710.9 511.21 710.9 495.99 729.07 495.99"
     opacity="0.05"
     id="polygon405" />
  <polygon
     points="947.05 447.17 947.05 458.46 928.88 462.51 928.88 447.17 947.05 447.17"
     opacity="0.05"
     id="polygon407" />
  <polygon
     points="992.46 389.27 992.46 446.04 900.38 466.61 873.6 472.59 765.67 496.7 738.84 502.7 672.3 517.56 673.44 452.85 765.91 434.42 791.78 429.27 791.79 429.27 897.5 408.2 923.32 403.05 992.46 389.27"
     fill="#dfe5ee"
     id="polygon409" />
  <polygon
     points="791.79 429.27 765.67 496.7 738.84 502.7 765.91 434.42 755.9 426.42 781.52 421.54 791.78 429.27 791.79 429.27"
     fill="#498736"
     id="polygon411" />
  <polygon
     points="924.62 404.03 900.38 466.61 873.6 472.59 898.74 409.18 897.5 408.2 888.74 401.18 914.35 396.3 923.32 403.05 924.61 404.03 924.62 404.03"
     fill="#498736"
     id="polygon413" />
  <polygon
     points="714.88 703.47 733.04 699.21 733.04 703.47 714.88 707.73 714.88 703.47"
     opacity="0.05"
     id="polygon415" />
  <polygon
     points="931.72 628.54 949.88 624.28 949.88 628.54 931.72 632.79 931.72 628.54"
     opacity="0.05"
     id="polygon417" />
</svg>
